<svg width="306" height="125" viewBox="0 0 306 125" fill="none" xmlns="http://www.w3.org/2000/svg">
<path d="M206.146 90V65.182H222.718H224.61H226.503H229.027H230.289V90H229.658H206.146Z" fill="#CD7F32"/>
<path d="M83.8769 90V65.182H59.9381V90H83.8769Z" fill="#CD7F32"/>
<path d="M0 2.0089H49.8433C78.235 2.00889 86.4006 0.504776 86.4006 36.6037V65.182H83.8769M306 2.0089H237.86C209.089 2.0089 200.468 2.0089 200.468 36.6037V65.182H206.146M206.146 65.182V90H229.658H230.289V65.182M206.146 65.182H222.718H224.61H226.503H229.027H230.289M230.289 65.182H233.443V42.6202C233.443 31.3393 233.569 31.3393 246.693 31.3393H306M0 31.3393H56.7835C56.7835 44.5557 56.7835 51.9656 56.7835 65.182H59.9381M83.8769 65.182V90H59.9381V65.182M83.8769 65.182H59.9381M228.752 102.5V107.75L231 112.5V119.5L233.675 122M218.5 124.5L219.693 120L217.444 115.5L219.825 112.5L217.577 107.75V102.5M207.202 122L206.279 117L210.5 114L208.5 107.75L206.279 105.25L208.5 100M61.2516 118.5L63.5 114.886L61.2516 110.386L64.1325 105.5L61 100.75L63.5 95.5M74.5 118.5L73.4443 113L75.5 109L71.1958 105.5L73 101L72.5 95.5M85.5 118.5L83.5 113.5L84.5 109V105.5L82 102L83.8769 98.5L82 95.5" stroke="black" stroke-width="3"/>
</svg>
