<svg width="16" height="22" viewBox="0 0 16 22" fill="none" xmlns="http://www.w3.org/2000/svg">
<path d="M3.13097 11.9928C2.59607 11.3602 1.64963 11.281 1.01704 11.8159C0.384437 12.3508 0.305231 13.2972 0.840126 13.9298L3.13097 11.9928ZM14.6585 13.9733C15.1747 13.3253 15.0679 12.3816 14.4199 11.8654C13.772 11.3492 12.8283 11.456 12.3121 12.104L14.6585 13.9733ZM9.00712 18.6599L10.1803 19.5946L10.1803 19.5946L9.00712 18.6599ZM6.7914 18.645L5.64598 19.6135L5.64598 19.6135L6.7914 18.645ZM9.54528 2.01187C9.55085 1.18346 8.88381 0.507391 8.0554 0.501823C7.22699 0.496254 6.55092 1.1633 6.54535 1.99171L9.54528 2.01187ZM10.1803 19.5946L14.6585 13.9733L12.3121 12.104L7.8339 17.7253L10.1803 19.5946ZM7.93682 17.6765L3.13097 11.9928L0.840126 13.9298L5.64598 19.6135L7.93682 17.6765ZM7.8339 17.7253C7.76518 17.8115 7.70518 17.8871 7.64739 17.9594C7.59026 18.0308 7.53989 18.0933 7.49409 18.1491C7.44824 18.2049 7.4098 18.2505 7.37683 18.2882C7.34368 18.3261 7.31984 18.3517 7.30343 18.3685C7.28671 18.3855 7.28322 18.3877 7.29127 18.381C7.2991 18.3744 7.32675 18.3518 7.37306 18.324C7.42021 18.2957 7.49288 18.2582 7.58943 18.2278C7.68864 18.1965 7.80325 18.1758 7.92822 18.1751C8.05294 18.1743 8.16562 18.1934 8.26108 18.2218C8.35393 18.2494 8.42311 18.2834 8.46653 18.3081C8.50929 18.3324 8.53385 18.3515 8.53867 18.3553C8.54377 18.3593 8.53735 18.3547 8.51762 18.3358C8.4982 18.3173 8.4711 18.29 8.43447 18.2508C8.39804 18.2119 8.35573 18.165 8.30575 18.1082C8.25586 18.0514 8.20088 17.9876 8.13896 17.915C8.07693 17.8422 8.01049 17.7636 7.93682 17.6765L5.64598 19.6135C5.91502 19.9317 6.19415 20.2651 6.44524 20.505C6.65318 20.7036 7.17393 21.1799 7.94716 21.175C8.73508 21.17 9.24679 20.6716 9.44605 20.4683C9.68115 20.2284 9.94234 19.8933 10.1803 19.5946L7.8339 17.7253ZM6.78131 20.145L7.92331 20.1527L7.94348 17.1527L6.80148 17.1451L6.78131 20.145ZM7.92331 20.1527L9.06531 20.1604L9.08548 17.1604L7.94348 17.1527L7.92331 20.1527ZM9.43336 18.6628L9.53184 4.01183L6.53191 3.99166L6.43343 18.6426L9.43336 18.6628ZM9.53184 4.01183L9.54528 2.01187L6.54535 1.99171L6.53191 3.99166L9.53184 4.01183Z" fill="#64B049"/>
</svg>
