<svg width="15" height="22" viewBox="0 0 15 22" fill="none" xmlns="http://www.w3.org/2000/svg">
<path d="M12.3611 9.64974C12.9002 10.2787 13.8472 10.3516 14.4762 9.81244C15.1052 9.27331 15.178 8.32636 14.6389 7.69737L12.3611 9.64974ZM0.820522 7.74683C0.308702 8.39823 0.42186 9.34121 1.07327 9.85303C1.72468 10.3649 2.66766 10.2517 3.17948 9.60029L0.820522 7.74683ZM6.44028 3.02229L5.26081 2.09556V2.09556L6.44028 3.02229ZM8.65605 3.02229L9.79494 2.0461V2.0461L8.65605 3.02229ZM6.01403 19.6736C6.01403 20.502 6.6856 21.1736 7.51403 21.1736C8.34246 21.1736 9.01403 20.502 9.01403 19.6736H6.01403ZM5.26081 2.09556L0.820522 7.74683L3.17948 9.60029L7.61976 3.94902L5.26081 2.09556ZM7.51717 3.99847L12.3611 9.64974L14.6389 7.69737L9.79494 2.0461L7.51717 3.99847ZM7.61976 3.94902C7.6879 3.8623 7.74738 3.78636 7.80469 3.71368C7.86134 3.64185 7.91129 3.57901 7.95671 3.52296C8.00219 3.46684 8.04032 3.421 8.07303 3.38307C8.10593 3.34492 8.12959 3.31915 8.14589 3.30229C8.1625 3.28512 8.16598 3.2829 8.15797 3.28972C8.15018 3.29634 8.12268 3.31909 8.07656 3.34721C8.0296 3.37584 7.95719 3.41379 7.86084 3.44487C7.76185 3.4768 7.64737 3.49827 7.52241 3.4999C7.3977 3.50153 7.2849 3.48311 7.18925 3.45538C7.09621 3.42842 7.0268 3.39485 6.98322 3.37046C6.9403 3.34645 6.91561 3.32752 6.91077 3.32374C6.90564 3.31975 6.91209 3.32438 6.93195 3.34309C6.95149 3.36152 6.97878 3.38861 7.01567 3.42751C7.05236 3.4662 7.09499 3.51278 7.14534 3.56931C7.19562 3.62574 7.25102 3.68919 7.31343 3.76139C7.37595 3.83372 7.44292 3.91185 7.51717 3.99847L9.79494 2.0461C9.52376 1.72973 9.2424 1.39825 8.9897 1.16006C8.78043 0.962796 8.2565 0.490077 7.48331 0.500155C6.69544 0.510426 6.18709 1.01228 5.98921 1.21693C5.75572 1.4584 5.49679 1.79521 5.26081 2.09556L7.61976 3.94902ZM8.65605 1.52229H7.51403V4.52229H8.65605V1.52229ZM7.51403 1.52229H6.37201V4.52229H7.51403V1.52229ZM6.01403 3.02229V17.6736H9.01403V3.02229H6.01403ZM6.01403 17.6736V19.6736H9.01403V17.6736H6.01403Z" fill="#FF7878"/>
</svg>
